<?xml version="1.0" encoding="UTF-8" standalone="no"?>
<!DOCTYPE svg PUBLIC "-//W3C//DTD SVG 1.1//EN"
 "http://www.w3.org/Graphics/SVG/1.1/DTD/svg11.dtd">
<!-- Generated by graphviz version 2.40.1 (20161225.0304)
 -->
<!-- Title: snakemake_dag Pages: 1 -->
<svg width="959pt" height="1149pt"
 viewBox="0.00 0.00 959.00 1149.00" xmlns="http://www.w3.org/2000/svg" xmlns:xlink="http://www.w3.org/1999/xlink">
<g id="graph0" class="graph" transform="scale(1 1) rotate(0) translate(4 1145)">
<title>snakemake_dag</title>
<polygon fill="#ffffff" stroke="transparent" points="-4,4 -4,-1145 955,-1145 955,4 -4,4"/>
<!-- 0 -->
<g id="node1" class="node">
<title>0</title>
<path fill="none" stroke="#d88556" stroke-width="2" d="M466,-36C466,-36 436,-36 436,-36 430,-36 424,-30 424,-24 424,-24 424,-12 424,-12 424,-6 430,0 436,0 436,0 466,0 466,0 472,0 478,-6 478,-12 478,-12 478,-24 478,-24 478,-30 472,-36 466,-36"/>
<text text-anchor="middle" x="451" y="-15.5" font-family="sans" font-size="10.00" fill="#000000">all</text>
</g>
<!-- 1 -->
<g id="node2" class="node">
<title>1</title>
<path fill="none" stroke="#d8a456" stroke-width="2" d="M355.5,-434C355.5,-434 302.5,-434 302.5,-434 296.5,-434 290.5,-428 290.5,-422 290.5,-422 290.5,-372 290.5,-372 290.5,-366 296.5,-360 302.5,-360 302.5,-360 355.5,-360 355.5,-360 361.5,-360 367.5,-366 367.5,-372 367.5,-372 367.5,-422 367.5,-422 367.5,-428 361.5,-434 355.5,-434"/>
<text text-anchor="middle" x="329" y="-422" font-family="sans" font-size="10.00" fill="#000000">mat2tsv</text>
<text text-anchor="middle" x="329" y="-411" font-family="sans" font-size="10.00" fill="#000000">acq: mb</text>
<text text-anchor="middle" x="329" y="-400" font-family="sans" font-size="10.00" fill="#000000">run: 1</text>
<text text-anchor="middle" x="329" y="-389" font-family="sans" font-size="10.00" fill="#000000">ses: 2</text>
<text text-anchor="middle" x="329" y="-378" font-family="sans" font-size="10.00" fill="#000000">sub: 6325t1</text>
<text text-anchor="middle" x="329" y="-367" font-family="sans" font-size="10.00" fill="#000000">task: reward</text>
</g>
<!-- 1&#45;&gt;0 -->
<g id="edge1" class="edge">
<title>1&#45;&gt;0</title>
<path fill="none" stroke="#c0c0c0" stroke-width="2" d="M290.3574,-393.2711C211.1997,-383.2842 38,-348.3654 38,-234 38,-234 38,-234 38,-162 38,-117.0781 47.4964,-98.1814 84,-72 136.3911,-34.4236 331.3298,-22.5933 413.7879,-19.2219"/>
<polygon fill="#c0c0c0" stroke="#c0c0c0" stroke-width="2" points="414.1049,-22.7123 423.9612,-18.8259 413.8326,-15.7176 414.1049,-22.7123"/>
</g>
<!-- 18 -->
<g id="node19" class="node">
<title>18</title>
<path fill="none" stroke="#afd856" stroke-width="2" d="M476,-324C476,-324 430,-324 430,-324 424,-324 418,-318 418,-312 418,-312 418,-300 418,-300 418,-294 424,-288 430,-288 430,-288 476,-288 476,-288 482,-288 488,-294 488,-300 488,-300 488,-312 488,-312 488,-318 482,-324 476,-324"/>
<text text-anchor="middle" x="453" y="-303.5" font-family="sans" font-size="10.00" fill="#000000">modelspec</text>
</g>
<!-- 1&#45;&gt;18 -->
<g id="edge35" class="edge">
<title>1&#45;&gt;18</title>
<path fill="none" stroke="#c0c0c0" stroke-width="2" d="M367.5547,-368.7059C384.3852,-356.3544 403.919,-342.0191 420.058,-330.1752"/>
<polygon fill="#c0c0c0" stroke="#c0c0c0" stroke-width="2" points="422.1647,-332.9705 428.156,-324.2323 418.0232,-327.3271 422.1647,-332.9705"/>
</g>
<!-- 2 -->
<g id="node3" class="node">
<title>2</title>
<path fill="none" stroke="#5682d8" stroke-width="2" d="M521.5,-722C521.5,-722 480.5,-722 480.5,-722 474.5,-722 468.5,-716 468.5,-710 468.5,-710 468.5,-698 468.5,-698 468.5,-692 474.5,-686 480.5,-686 480.5,-686 521.5,-686 521.5,-686 527.5,-686 533.5,-692 533.5,-698 533.5,-698 533.5,-710 533.5,-710 533.5,-716 527.5,-722 521.5,-722"/>
<text text-anchor="middle" x="501" y="-701.5" font-family="sans" font-size="10.00" fill="#000000">coregister</text>
</g>
<!-- 2&#45;&gt;0 -->
<g id="edge2" class="edge">
<title>2&#45;&gt;0</title>
<path fill="none" stroke="#c0c0c0" stroke-width="2" d="M468.128,-701.7105C356.6689,-693.0596 0,-657.7407 0,-560 0,-560 0,-560 0,-162 0,-117.0781 9.32,-97.9337 46,-72 104.7884,-30.4351 325.0019,-20.8344 413.6674,-18.6406"/>
<polygon fill="#c0c0c0" stroke="#c0c0c0" stroke-width="2" points="413.8913,-22.1365 423.8084,-18.4082 413.7308,-15.1383 413.8913,-22.1365"/>
</g>
<!-- 17 -->
<g id="node18" class="node">
<title>17</title>
<path fill="none" stroke="#d8c356" stroke-width="2" d="M643.5,-650C643.5,-650 602.5,-650 602.5,-650 596.5,-650 590.5,-644 590.5,-638 590.5,-638 590.5,-626 590.5,-626 590.5,-620 596.5,-614 602.5,-614 602.5,-614 643.5,-614 643.5,-614 649.5,-614 655.5,-620 655.5,-626 655.5,-626 655.5,-638 655.5,-638 655.5,-644 649.5,-650 643.5,-650"/>
<text text-anchor="middle" x="623" y="-629.5" font-family="sans" font-size="10.00" fill="#000000">normalize</text>
</g>
<!-- 2&#45;&gt;17 -->
<g id="edge33" class="edge">
<title>2&#45;&gt;17</title>
<path fill="none" stroke="#c0c0c0" stroke-width="2" d="M531.7858,-685.8314C547.3903,-676.6221 566.524,-665.3301 583.2303,-655.4706"/>
<polygon fill="#c0c0c0" stroke="#c0c0c0" stroke-width="2" points="585.3909,-658.2596 592.2241,-650.1628 581.8331,-652.2312 585.3909,-658.2596"/>
</g>
<!-- 3 -->
<g id="node4" class="node">
<title>3</title>
<path fill="none" stroke="#d8d356" stroke-width="2" d="M638,-578C638,-578 608,-578 608,-578 602,-578 596,-572 596,-566 596,-566 596,-554 596,-554 596,-548 602,-542 608,-542 608,-542 638,-542 638,-542 644,-542 650,-548 650,-554 650,-554 650,-566 650,-566 650,-572 644,-578 638,-578"/>
<text text-anchor="middle" x="623" y="-557.5" font-family="sans" font-size="10.00" fill="#000000">smooth</text>
</g>
<!-- 3&#45;&gt;0 -->
<g id="edge3" class="edge">
<title>3&#45;&gt;0</title>
<path fill="none" stroke="#c0c0c0" stroke-width="2" d="M641.201,-541.7646C708.2004,-472.4891 930.6828,-221.9941 802,-72 781.6954,-48.3328 574.2689,-28.3477 488.1591,-21.0061"/>
<polygon fill="#c0c0c0" stroke="#c0c0c0" stroke-width="2" points="488.2983,-17.5056 478.0399,-20.1541 487.711,-24.4809 488.2983,-17.5056"/>
</g>
<!-- 3&#45;&gt;18 -->
<g id="edge34" class="edge">
<title>3&#45;&gt;18</title>
<path fill="none" stroke="#c0c0c0" stroke-width="2" d="M623.4522,-541.8512C623.4316,-503.5718 618.1173,-413.6815 572,-360 552.9448,-337.8193 522.9119,-324.2851 497.7858,-316.3134"/>
<polygon fill="#c0c0c0" stroke="#c0c0c0" stroke-width="2" points="498.6592,-312.9217 488.0763,-313.4256 496.6636,-319.6312 498.6592,-312.9217"/>
</g>
<!-- 25 -->
<g id="node26" class="node">
<title>25</title>
<path fill="none" stroke="#56d8a2" stroke-width="2" d="M582.5,-506C582.5,-506 517.5,-506 517.5,-506 511.5,-506 505.5,-500 505.5,-494 505.5,-494 505.5,-482 505.5,-482 505.5,-476 511.5,-470 517.5,-470 517.5,-470 582.5,-470 582.5,-470 588.5,-470 594.5,-476 594.5,-482 594.5,-482 594.5,-494 594.5,-494 594.5,-500 588.5,-506 582.5,-506"/>
<text text-anchor="middle" x="550" y="-485.5" font-family="sans" font-size="10.00" fill="#000000">makeArtConfig</text>
</g>
<!-- 3&#45;&gt;25 -->
<g id="edge46" class="edge">
<title>3&#45;&gt;25</title>
<path fill="none" stroke="#c0c0c0" stroke-width="2" d="M604.579,-541.8314C595.8471,-533.219 585.2683,-522.7851 575.7577,-513.4048"/>
<polygon fill="#c0c0c0" stroke="#c0c0c0" stroke-width="2" points="577.9925,-510.6931 568.4151,-506.1628 573.077,-515.6769 577.9925,-510.6931"/>
</g>
<!-- 4 -->
<g id="node5" class="node">
<title>4</title>
<path fill="none" stroke="#d86656" stroke-width="2" d="M458,-180C458,-180 390,-180 390,-180 384,-180 378,-174 378,-168 378,-168 378,-156 378,-156 378,-150 384,-144 390,-144 390,-144 458,-144 458,-144 464,-144 470,-150 470,-156 470,-156 470,-168 470,-168 470,-174 464,-180 458,-180"/>
<text text-anchor="middle" x="424" y="-159.5" font-family="sans" font-size="10.00" fill="#000000">modelcontrasts</text>
</g>
<!-- 4&#45;&gt;0 -->
<g id="edge4" class="edge">
<title>4&#45;&gt;0</title>
<path fill="none" stroke="#c0c0c0" stroke-width="2" d="M381.0146,-143.8854C366.2171,-135.3151 351.2939,-123.4972 343,-108 335.4503,-93.8932 334.5883,-85.6104 343,-72 358.4014,-47.08 389.1708,-33.2755 413.9405,-25.8768"/>
<polygon fill="#c0c0c0" stroke="#c0c0c0" stroke-width="2" points="415.0668,-29.197 423.7811,-23.1711 413.211,-22.4475 415.0668,-29.197"/>
</g>
<!-- 8 -->
<g id="node9" class="node">
<title>8</title>
<path fill="none" stroke="#d85656" stroke-width="2" d="M430,-108C430,-108 364,-108 364,-108 358,-108 352,-102 352,-96 352,-96 352,-84 352,-84 352,-78 358,-72 364,-72 364,-72 430,-72 430,-72 436,-72 442,-78 442,-84 442,-84 442,-96 442,-96 442,-102 436,-108 430,-108"/>
<text text-anchor="middle" x="397" y="-87.5" font-family="sans" font-size="10.00" fill="#000000">wholeBrainCov</text>
</g>
<!-- 4&#45;&gt;8 -->
<g id="edge23" class="edge">
<title>4&#45;&gt;8</title>
<path fill="none" stroke="#c0c0c0" stroke-width="2" d="M417.1868,-143.8314C414.2356,-135.9617 410.7142,-126.5712 407.445,-117.8533"/>
<polygon fill="#c0c0c0" stroke="#c0c0c0" stroke-width="2" points="410.6934,-116.5476 403.905,-108.4133 404.1391,-119.0055 410.6934,-116.5476"/>
</g>
<!-- 9 -->
<g id="node10" class="node">
<title>9</title>
<path fill="none" stroke="#5673d8" stroke-width="2" d="M539.5,-108C539.5,-108 472.5,-108 472.5,-108 466.5,-108 460.5,-102 460.5,-96 460.5,-96 460.5,-84 460.5,-84 460.5,-78 466.5,-72 472.5,-72 472.5,-72 539.5,-72 539.5,-72 545.5,-72 551.5,-78 551.5,-84 551.5,-84 551.5,-96 551.5,-96 551.5,-102 545.5,-108 539.5,-108"/>
<text text-anchor="middle" x="506" y="-87.5" font-family="sans" font-size="10.00" fill="#000000">frontalLobeCov</text>
</g>
<!-- 4&#45;&gt;9 -->
<g id="edge24" class="edge">
<title>4&#45;&gt;9</title>
<path fill="none" stroke="#c0c0c0" stroke-width="2" d="M444.6921,-143.8314C454.6948,-135.0485 466.855,-124.3712 477.6999,-114.8489"/>
<polygon fill="#c0c0c0" stroke="#c0c0c0" stroke-width="2" points="480.1094,-117.3909 485.3146,-108.1628 475.4908,-112.1308 480.1094,-117.3909"/>
</g>
<!-- 10 -->
<g id="node11" class="node">
<title>10</title>
<path fill="none" stroke="#56d8c1" stroke-width="2" d="M626.5,-108C626.5,-108 581.5,-108 581.5,-108 575.5,-108 569.5,-102 569.5,-96 569.5,-96 569.5,-84 569.5,-84 569.5,-78 575.5,-72 581.5,-72 581.5,-72 626.5,-72 626.5,-72 632.5,-72 638.5,-78 638.5,-84 638.5,-84 638.5,-96 638.5,-96 638.5,-102 632.5,-108 626.5,-108"/>
<text text-anchor="middle" x="604" y="-87.5" font-family="sans" font-size="10.00" fill="#000000">gmPFCCov</text>
</g>
<!-- 4&#45;&gt;10 -->
<g id="edge25" class="edge">
<title>4&#45;&gt;10</title>
<path fill="none" stroke="#c0c0c0" stroke-width="2" d="M469.6906,-143.9945C496.1059,-133.5508 529.9581,-120.1088 560,-108 560.0957,-107.9614 560.1915,-107.9228 560.2874,-107.8841"/>
<polygon fill="#c0c0c0" stroke="#c0c0c0" stroke-width="2" points="561.4715,-111.1808 569.4266,-104.1831 558.844,-104.6926 561.4715,-111.1808"/>
</g>
<!-- 11 -->
<g id="node12" class="node">
<title>11</title>
<path fill="none" stroke="#56d892" stroke-width="2" d="M699,-108C699,-108 669,-108 669,-108 663,-108 657,-102 657,-96 657,-96 657,-84 657,-84 657,-78 663,-72 669,-72 669,-72 699,-72 699,-72 705,-72 711,-78 711,-84 711,-84 711,-96 711,-96 711,-102 705,-108 699,-108"/>
<text text-anchor="middle" x="684" y="-87.5" font-family="sans" font-size="10.00" fill="#000000">vsCov</text>
</g>
<!-- 4&#45;&gt;11 -->
<g id="edge26" class="edge">
<title>4&#45;&gt;11</title>
<path fill="none" stroke="#c0c0c0" stroke-width="2" d="M470.3747,-154.0132C514.1605,-145.7688 581.5665,-131.2585 647.1125,-107.9249"/>
<polygon fill="#c0c0c0" stroke="#c0c0c0" stroke-width="2" points="648.5627,-111.122 656.7667,-104.4179 646.1726,-104.5426 648.5627,-111.122"/>
</g>
<!-- 12 -->
<g id="node13" class="node">
<title>12</title>
<path fill="none" stroke="#56d882" stroke-width="2" d="M781,-108C781,-108 741,-108 741,-108 735,-108 729,-102 729,-96 729,-96 729,-84 729,-84 729,-78 735,-72 741,-72 741,-72 781,-72 781,-72 787,-72 793,-78 793,-84 793,-84 793,-96 793,-96 793,-102 787,-108 781,-108"/>
<text text-anchor="middle" x="761" y="-87.5" font-family="sans" font-size="10.00" fill="#000000">gmVSCov</text>
</g>
<!-- 4&#45;&gt;12 -->
<g id="edge27" class="edge">
<title>4&#45;&gt;12</title>
<path fill="none" stroke="#c0c0c0" stroke-width="2" d="M470.1738,-156.9625C527.079,-150.0153 626.6147,-135.4549 718.8267,-108.0093"/>
<polygon fill="#c0c0c0" stroke="#c0c0c0" stroke-width="2" points="720.0346,-111.3004 728.5869,-105.0468 718.0014,-104.6021 720.0346,-111.3004"/>
</g>
<!-- 13 -->
<g id="node14" class="node">
<title>13</title>
<path fill="none" stroke="#56d873" stroke-width="2" d="M158,-108C158,-108 116,-108 116,-108 110,-108 104,-102 104,-96 104,-96 104,-84 104,-84 104,-78 110,-72 116,-72 116,-72 158,-72 158,-72 164,-72 170,-78 170,-84 170,-84 170,-96 170,-96 170,-102 164,-108 158,-108"/>
<text text-anchor="middle" x="137" y="-87.5" font-family="sans" font-size="10.00" fill="#000000">biamyCov</text>
</g>
<!-- 4&#45;&gt;13 -->
<g id="edge28" class="edge">
<title>4&#45;&gt;13</title>
<path fill="none" stroke="#c0c0c0" stroke-width="2" d="M377.7104,-154.4776C330.0703,-146.1449 253.7135,-131.1466 180.1444,-108.0778"/>
<polygon fill="#c0c0c0" stroke="#c0c0c0" stroke-width="2" points="180.8455,-104.6277 170.2548,-104.9216 178.7173,-111.2963 180.8455,-104.6277"/>
</g>
<!-- 14 -->
<g id="node15" class="node">
<title>14</title>
<path fill="none" stroke="#d87556" stroke-width="2" d="M283.5,-108C283.5,-108 200.5,-108 200.5,-108 194.5,-108 188.5,-102 188.5,-96 188.5,-96 188.5,-84 188.5,-84 188.5,-78 194.5,-72 200.5,-72 200.5,-72 283.5,-72 283.5,-72 289.5,-72 295.5,-78 295.5,-84 295.5,-84 295.5,-96 295.5,-96 295.5,-102 289.5,-108 283.5,-108"/>
<text text-anchor="middle" x="242" y="-87.5" font-family="sans" font-size="10.00" fill="#000000">gmWholeBrainCov</text>
</g>
<!-- 4&#45;&gt;14 -->
<g id="edge29" class="edge">
<title>4&#45;&gt;14</title>
<path fill="none" stroke="#c0c0c0" stroke-width="2" d="M378.0737,-143.8314C353.4077,-134.0734 322.8309,-121.977 296.914,-111.7242"/>
<polygon fill="#c0c0c0" stroke="#c0c0c0" stroke-width="2" points="298.1824,-108.4621 287.596,-108.038 295.6073,-114.9713 298.1824,-108.4621"/>
</g>
<!-- 5 -->
<g id="node6" class="node">
<title>5</title>
<path fill="none" stroke="#56d863" stroke-width="2" d="M262.5,-180C262.5,-180 191.5,-180 191.5,-180 185.5,-180 179.5,-174 179.5,-168 179.5,-168 179.5,-156 179.5,-156 179.5,-150 185.5,-144 191.5,-144 191.5,-144 262.5,-144 262.5,-144 268.5,-144 274.5,-150 274.5,-156 274.5,-156 274.5,-168 274.5,-168 274.5,-174 268.5,-180 262.5,-180"/>
<text text-anchor="middle" x="227" y="-159.5" font-family="sans" font-size="10.00" fill="#000000">concatResiduals</text>
</g>
<!-- 5&#45;&gt;0 -->
<g id="edge5" class="edge">
<title>5&#45;&gt;0</title>
<path fill="none" stroke="#c0c0c0" stroke-width="2" d="M179.224,-155.885C149.5852,-149.3512 113.7004,-135.8549 95,-108 86.0818,-94.716 84.5691,-84.1324 95,-72 115.6579,-47.9723 326.9116,-28.1314 413.8899,-20.9177"/>
<polygon fill="#c0c0c0" stroke="#c0c0c0" stroke-width="2" points="414.1789,-24.4059 423.8598,-20.1012 413.6074,-17.4293 414.1789,-24.4059"/>
</g>
<!-- 6 -->
<g id="node7" class="node">
<title>6</title>
<path fill="none" stroke="#56a2d8" stroke-width="2" d="M939,-650C939,-650 857,-650 857,-650 851,-650 845,-644 845,-638 845,-638 845,-626 845,-626 845,-620 851,-614 857,-614 857,-614 939,-614 939,-614 945,-614 951,-620 951,-626 951,-626 951,-638 951,-638 951,-644 945,-650 939,-650"/>
<text text-anchor="middle" x="898" y="-629.5" font-family="sans" font-size="10.00" fill="#000000">getRegisteredFunc</text>
</g>
<!-- 6&#45;&gt;0 -->
<g id="edge6" class="edge">
<title>6&#45;&gt;0</title>
<path fill="none" stroke="#c0c0c0" stroke-width="2" d="M904.3622,-613.615C913.1685,-586.4838 928,-533.9662 928,-488 928,-488 928,-488 928,-162 928,-111.8664 903.3186,-97.2364 860,-72 797.1854,-35.4057 576.8158,-22.8926 488.2583,-19.2798"/>
<polygon fill="#c0c0c0" stroke="#c0c0c0" stroke-width="2" points="488.2611,-15.7773 478.1314,-18.8823 487.9864,-22.7719 488.2611,-15.7773"/>
</g>
<!-- 7 -->
<g id="node8" class="node">
<title>7</title>
<path fill="none" stroke="#5692d8" stroke-width="2" d="M887.5,-506C887.5,-506 830.5,-506 830.5,-506 824.5,-506 818.5,-500 818.5,-494 818.5,-494 818.5,-482 818.5,-482 818.5,-476 824.5,-470 830.5,-470 830.5,-470 887.5,-470 887.5,-470 893.5,-470 899.5,-476 899.5,-482 899.5,-482 899.5,-494 899.5,-494 899.5,-500 893.5,-506 887.5,-506"/>
<text text-anchor="middle" x="859" y="-485.5" font-family="sans" font-size="10.00" fill="#000000">getNormFunc</text>
</g>
<!-- 7&#45;&gt;0 -->
<g id="edge7" class="edge">
<title>7&#45;&gt;0</title>
<path fill="none" stroke="#c0c0c0" stroke-width="2" d="M859,-469.9174C859,-437.2087 859,-366.0347 859,-306 859,-306 859,-306 859,-162 859,-120.6022 865.9876,-99.4508 835,-72 809.2483,-49.1874 579.8031,-28.3775 488.3661,-20.9161"/>
<polygon fill="#c0c0c0" stroke="#c0c0c0" stroke-width="2" points="488.4245,-17.4096 478.1753,-20.0934 487.8611,-24.3869 488.4245,-17.4096"/>
</g>
<!-- 8&#45;&gt;0 -->
<g id="edge8" class="edge">
<title>8&#45;&gt;0</title>
<path fill="none" stroke="#c0c0c0" stroke-width="2" d="M410.6265,-71.8314C416.846,-63.5386 424.3322,-53.557 431.16,-44.4533"/>
<polygon fill="#c0c0c0" stroke="#c0c0c0" stroke-width="2" points="433.99,-46.5133 437.19,-36.4133 428.39,-42.3133 433.99,-46.5133"/>
</g>
<!-- 9&#45;&gt;0 -->
<g id="edge9" class="edge">
<title>9&#45;&gt;0</title>
<path fill="none" stroke="#c0c0c0" stroke-width="2" d="M492.1212,-71.8314C485.7864,-63.5386 478.1616,-53.557 471.2074,-44.4533"/>
<polygon fill="#c0c0c0" stroke="#c0c0c0" stroke-width="2" points="473.9175,-42.2353 465.0657,-36.4133 468.3548,-46.4847 473.9175,-42.2353"/>
</g>
<!-- 10&#45;&gt;0 -->
<g id="edge10" class="edge">
<title>10&#45;&gt;0</title>
<path fill="none" stroke="#c0c0c0" stroke-width="2" d="M569.2819,-73.6621C544.89,-62.1835 512.3232,-46.858 487.5377,-35.1942"/>
<polygon fill="#c0c0c0" stroke="#c0c0c0" stroke-width="2" points="488.9912,-32.0101 478.4527,-30.9189 486.0106,-38.3438 488.9912,-32.0101"/>
</g>
<!-- 11&#45;&gt;0 -->
<g id="edge11" class="edge">
<title>11&#45;&gt;0</title>
<path fill="none" stroke="#c0c0c0" stroke-width="2" d="M656.7324,-75.6739C653.8192,-74.3523 650.8714,-73.0992 648,-72 593.7684,-51.24 528.3147,-34.9445 488.1828,-25.8958"/>
<polygon fill="#c0c0c0" stroke="#c0c0c0" stroke-width="2" points="488.8235,-22.4528 478.3022,-23.6993 487.3044,-29.286 488.8235,-22.4528"/>
</g>
<!-- 12&#45;&gt;0 -->
<g id="edge12" class="edge">
<title>12&#45;&gt;0</title>
<path fill="none" stroke="#c0c0c0" stroke-width="2" d="M728.5701,-75.0074C725.7009,-73.9117 722.8169,-72.8896 720,-72 639.261,-46.5016 540.9532,-30.3782 488.4006,-22.9041"/>
<polygon fill="#c0c0c0" stroke="#c0c0c0" stroke-width="2" points="488.599,-19.398 478.2112,-21.4823 487.6315,-26.3308 488.599,-19.398"/>
</g>
<!-- 13&#45;&gt;0 -->
<g id="edge13" class="edge">
<title>13&#45;&gt;0</title>
<path fill="none" stroke="#c0c0c0" stroke-width="2" d="M170.2341,-75.0129C173.1704,-73.916 176.1205,-72.8921 179,-72 261.1305,-46.5548 361.047,-30.3311 413.9613,-22.8464"/>
<polygon fill="#c0c0c0" stroke="#c0c0c0" stroke-width="2" points="414.475,-26.3087 423.8982,-21.4658 413.5117,-19.3753 414.475,-26.3087"/>
</g>
<!-- 14&#45;&gt;0 -->
<g id="edge14" class="edge">
<title>14&#45;&gt;0</title>
<path fill="none" stroke="#c0c0c0" stroke-width="2" d="M294.4698,-71.9243C331.7275,-59.0891 380.8321,-42.1727 414.0308,-30.7358"/>
<polygon fill="#c0c0c0" stroke="#c0c0c0" stroke-width="2" points="415.4778,-33.9393 423.7925,-27.3729 413.1978,-27.321 415.4778,-33.9393"/>
</g>
<!-- 15 -->
<g id="node16" class="node">
<title>15</title>
<path fill="none" stroke="#5663d8" stroke-width="2" d="M638.5,-794C638.5,-794 583.5,-794 583.5,-794 577.5,-794 571.5,-788 571.5,-782 571.5,-782 571.5,-770 571.5,-770 571.5,-764 577.5,-758 583.5,-758 583.5,-758 638.5,-758 638.5,-758 644.5,-758 650.5,-764 650.5,-770 650.5,-770 650.5,-782 650.5,-782 650.5,-788 644.5,-794 638.5,-794"/>
<text text-anchor="middle" x="611" y="-773.5" font-family="sans" font-size="10.00" fill="#000000">cleanRealign</text>
</g>
<!-- 15&#45;&gt;2 -->
<g id="edge15" class="edge">
<title>15&#45;&gt;2</title>
<path fill="none" stroke="#c0c0c0" stroke-width="2" d="M583.2424,-757.8314C569.303,-748.7074 552.2402,-737.539 537.2769,-727.7449"/>
<polygon fill="#c0c0c0" stroke="#c0c0c0" stroke-width="2" points="539.0326,-724.711 528.7488,-722.1628 535.199,-730.5679 539.0326,-724.711"/>
</g>
<!-- 15&#45;&gt;6 -->
<g id="edge21" class="edge">
<title>15&#45;&gt;6</title>
<path fill="none" stroke="#c0c0c0" stroke-width="2" d="M647.0581,-757.9081C699.2542,-731.7192 795.8253,-683.2654 852.7413,-654.7082"/>
<polygon fill="#c0c0c0" stroke="#c0c0c0" stroke-width="2" points="854.4952,-657.7441 861.8636,-650.1311 851.3559,-651.4875 854.4952,-657.7441"/>
</g>
<!-- 15&#45;&gt;17 -->
<g id="edge32" class="edge">
<title>15&#45;&gt;17</title>
<path fill="none" stroke="#c0c0c0" stroke-width="2" d="M612.5198,-757.7623C614.5666,-733.201 618.2294,-689.2474 620.6372,-660.3541"/>
<polygon fill="#c0c0c0" stroke="#c0c0c0" stroke-width="2" points="624.1499,-660.3458 621.4925,-650.0896 617.1741,-659.7644 624.1499,-660.3458"/>
</g>
<!-- 15&#45;&gt;25 -->
<g id="edge47" class="edge">
<title>15&#45;&gt;25</title>
<path fill="none" stroke="#c0c0c0" stroke-width="2" d="M606.3704,-757.6954C600.2444,-733.2275 589.2574,-688.4753 581,-650 570.9588,-603.2131 560.8174,-548.4786 554.9853,-516.1089"/>
<polygon fill="#c0c0c0" stroke="#c0c0c0" stroke-width="2" points="558.3886,-515.258 553.179,-506.0325 551.4985,-516.4932 558.3886,-515.258"/>
</g>
<!-- 16 -->
<g id="node17" class="node">
<title>16</title>
<path fill="none" stroke="#d8b456" stroke-width="2" d="M516,-794C516,-794 486,-794 486,-794 480,-794 474,-788 474,-782 474,-782 474,-770 474,-770 474,-764 480,-758 486,-758 486,-758 516,-758 516,-758 522,-758 528,-764 528,-770 528,-770 528,-782 528,-782 528,-788 522,-794 516,-794"/>
<text text-anchor="middle" x="501" y="-773.5" font-family="sans" font-size="10.00" fill="#000000">hCorr</text>
</g>
<!-- 16&#45;&gt;2 -->
<g id="edge16" class="edge">
<title>16&#45;&gt;2</title>
<path fill="none" stroke="#c0c0c0" stroke-width="2" d="M501,-757.8314C501,-750.131 501,-740.9743 501,-732.4166"/>
<polygon fill="#c0c0c0" stroke="#c0c0c0" stroke-width="2" points="504.5001,-732.4132 501,-722.4133 497.5001,-732.4133 504.5001,-732.4132"/>
</g>
<!-- 17&#45;&gt;3 -->
<g id="edge17" class="edge">
<title>17&#45;&gt;3</title>
<path fill="none" stroke="#c0c0c0" stroke-width="2" d="M623,-613.8314C623,-606.131 623,-596.9743 623,-588.4166"/>
<polygon fill="#c0c0c0" stroke="#c0c0c0" stroke-width="2" points="626.5001,-588.4132 623,-578.4133 619.5001,-588.4133 626.5001,-588.4132"/>
</g>
<!-- 17&#45;&gt;7 -->
<g id="edge22" class="edge">
<title>17&#45;&gt;7</title>
<path fill="none" stroke="#c0c0c0" stroke-width="2" d="M652.8896,-613.7623C695.5366,-587.7404 773.8583,-539.9508 820.7055,-511.3661"/>
<polygon fill="#c0c0c0" stroke="#c0c0c0" stroke-width="2" points="822.6398,-514.2861 829.3531,-506.0896 818.9937,-508.3106 822.6398,-514.2861"/>
</g>
<!-- 18&#45;&gt;4 -->
<g id="edge18" class="edge">
<title>18&#45;&gt;4</title>
<path fill="none" stroke="#c0c0c0" stroke-width="2" d="M449.3271,-287.7623C444.359,-263.0928 435.4509,-218.8598 429.6335,-189.9731"/>
<polygon fill="#c0c0c0" stroke="#c0c0c0" stroke-width="2" points="433.0485,-189.2018 427.643,-180.0896 426.1863,-190.5838 433.0485,-189.2018"/>
</g>
<!-- 19 -->
<g id="node20" class="node">
<title>19</title>
<path fill="none" stroke="#9fd856" stroke-width="2" d="M413,-252C413,-252 375,-252 375,-252 369,-252 363,-246 363,-240 363,-240 363,-228 363,-228 363,-222 369,-216 375,-216 375,-216 413,-216 413,-216 419,-216 425,-222 425,-228 425,-228 425,-240 425,-240 425,-246 419,-252 413,-252"/>
<text text-anchor="middle" x="394" y="-231.5" font-family="sans" font-size="10.00" fill="#000000">modelest</text>
</g>
<!-- 18&#45;&gt;19 -->
<g id="edge37" class="edge">
<title>18&#45;&gt;19</title>
<path fill="none" stroke="#c0c0c0" stroke-width="2" d="M438.1118,-287.8314C431.247,-279.454 422.9699,-269.3531 415.4489,-260.1749"/>
<polygon fill="#c0c0c0" stroke="#c0c0c0" stroke-width="2" points="418.1341,-257.9297 409.0886,-252.4133 412.7197,-262.3665 418.1341,-257.9297"/>
</g>
<!-- 19&#45;&gt;4 -->
<g id="edge19" class="edge">
<title>19&#45;&gt;4</title>
<path fill="none" stroke="#c0c0c0" stroke-width="2" d="M401.5703,-215.8314C404.8493,-207.9617 408.762,-198.5712 412.3945,-189.8533"/>
<polygon fill="#c0c0c0" stroke="#c0c0c0" stroke-width="2" points="415.7124,-190.9902 416.3278,-180.4133 409.2508,-188.2979 415.7124,-190.9902"/>
</g>
<!-- 19&#45;&gt;5 -->
<g id="edge20" class="edge">
<title>19&#45;&gt;5</title>
<path fill="none" stroke="#c0c0c0" stroke-width="2" d="M362.98,-220.6261C339.2698,-210.4037 306.0656,-196.0882 278.4043,-184.1623"/>
<polygon fill="#c0c0c0" stroke="#c0c0c0" stroke-width="2" points="279.4446,-180.7994 268.876,-180.0543 276.6732,-187.2275 279.4446,-180.7994"/>
</g>
<!-- 20 -->
<g id="node21" class="node">
<title>20</title>
<path fill="none" stroke="#59d856" stroke-width="2" d="M643,-868.5C643,-868.5 579,-868.5 579,-868.5 573,-868.5 567,-862.5 567,-856.5 567,-856.5 567,-844.5 567,-844.5 567,-838.5 573,-832.5 579,-832.5 579,-832.5 643,-832.5 643,-832.5 649,-832.5 655,-838.5 655,-844.5 655,-844.5 655,-856.5 655,-856.5 655,-862.5 649,-868.5 643,-868.5"/>
<text text-anchor="middle" x="611" y="-848" font-family="sans" font-size="10.00" fill="#000000">realignUnwarp</text>
</g>
<!-- 20&#45;&gt;15 -->
<g id="edge30" class="edge">
<title>20&#45;&gt;15</title>
<path fill="none" stroke="#c0c0c0" stroke-width="2" d="M611,-832.4656C611,-824.0178 611,-813.7542 611,-804.3064"/>
<polygon fill="#c0c0c0" stroke="#c0c0c0" stroke-width="2" points="614.5001,-804.1265 611,-794.1265 607.5001,-804.1265 614.5001,-804.1265"/>
</g>
<!-- 21 -->
<g id="node22" class="node">
<title>21</title>
<path fill="none" stroke="#d89556" stroke-width="2" d="M526,-871C526,-871 476,-871 476,-871 470,-871 464,-865 464,-859 464,-859 464,-842 464,-842 464,-836 470,-830 476,-830 476,-830 526,-830 526,-830 532,-830 538,-836 538,-842 538,-842 538,-859 538,-859 538,-865 532,-871 526,-871"/>
<text text-anchor="middle" x="501" y="-859" font-family="sans" font-size="10.00" fill="#000000">getRawT1w</text>
<text text-anchor="middle" x="501" y="-848" font-family="sans" font-size="10.00" fill="#000000">ses: 2</text>
<text text-anchor="middle" x="501" y="-837" font-family="sans" font-size="10.00" fill="#000000">sub: 6325t1</text>
</g>
<!-- 21&#45;&gt;16 -->
<g id="edge31" class="edge">
<title>21&#45;&gt;16</title>
<path fill="none" stroke="#c0c0c0" stroke-width="2" d="M501,-829.7476C501,-821.8767 501,-812.7743 501,-804.3232"/>
<polygon fill="#c0c0c0" stroke="#c0c0c0" stroke-width="2" points="504.5001,-804.1086 501,-794.1087 497.5001,-804.1087 504.5001,-804.1086"/>
</g>
<!-- 22 -->
<g id="node23" class="node">
<title>22</title>
<path fill="none" stroke="#56b1d8" stroke-width="2" d="M551,-415C551,-415 521,-415 521,-415 515,-415 509,-409 509,-403 509,-403 509,-391 509,-391 509,-385 515,-379 521,-379 521,-379 551,-379 551,-379 557,-379 563,-385 563,-391 563,-391 563,-403 563,-403 563,-409 557,-415 551,-415"/>
<text text-anchor="middle" x="536" y="-394.5" font-family="sans" font-size="10.00" fill="#000000">ART</text>
</g>
<!-- 22&#45;&gt;18 -->
<g id="edge36" class="edge">
<title>22&#45;&gt;18</title>
<path fill="none" stroke="#c0c0c0" stroke-width="2" d="M519.2037,-378.5848C506.8604,-365.0518 489.933,-346.4928 476.2847,-331.529"/>
<polygon fill="#c0c0c0" stroke="#c0c0c0" stroke-width="2" points="478.8129,-329.1071 469.4881,-324.0773 473.641,-333.8243 478.8129,-329.1071"/>
</g>
<!-- 23 -->
<g id="node24" class="node">
<title>23</title>
<path fill="none" stroke="#78d856" stroke-width="2" d="M583,-943C583,-943 533,-943 533,-943 527,-943 521,-937 521,-931 521,-931 521,-919 521,-919 521,-913 527,-907 533,-907 533,-907 583,-907 583,-907 589,-907 595,-913 595,-919 595,-919 595,-931 595,-931 595,-937 589,-943 583,-943"/>
<text text-anchor="middle" x="558" y="-922.5" font-family="sans" font-size="10.00" fill="#000000">prepRealign</text>
</g>
<!-- 23&#45;&gt;20 -->
<g id="edge38" class="edge">
<title>23&#45;&gt;20</title>
<path fill="none" stroke="#c0c0c0" stroke-width="2" d="M570.8298,-906.9656C577.2274,-897.9728 585.0888,-886.9223 592.1557,-876.9887"/>
<polygon fill="#c0c0c0" stroke="#c0c0c0" stroke-width="2" points="595.1597,-878.8038 598.1046,-868.6265 589.4558,-874.746 595.1597,-878.8038"/>
</g>
<!-- 24 -->
<g id="node25" class="node">
<title>24</title>
<path fill="none" stroke="#56d0d8" stroke-width="2" d="M684.5,-943C684.5,-943 641.5,-943 641.5,-943 635.5,-943 629.5,-937 629.5,-931 629.5,-931 629.5,-919 629.5,-919 629.5,-913 635.5,-907 641.5,-907 641.5,-907 684.5,-907 684.5,-907 690.5,-907 696.5,-913 696.5,-919 696.5,-919 696.5,-931 696.5,-931 696.5,-937 690.5,-943 684.5,-943"/>
<text text-anchor="middle" x="663" y="-922.5" font-family="sans" font-size="10.00" fill="#000000">makeVDM</text>
</g>
<!-- 24&#45;&gt;20 -->
<g id="edge39" class="edge">
<title>24&#45;&gt;20</title>
<path fill="none" stroke="#c0c0c0" stroke-width="2" d="M650.4123,-906.9656C644.1354,-897.9728 636.4223,-886.9223 629.4888,-876.9887"/>
<polygon fill="#c0c0c0" stroke="#c0c0c0" stroke-width="2" points="632.2457,-874.8233 623.6521,-868.6265 626.5056,-878.8298 632.2457,-874.8233"/>
</g>
<!-- 25&#45;&gt;22 -->
<g id="edge40" class="edge">
<title>25&#45;&gt;22</title>
<path fill="none" stroke="#c0c0c0" stroke-width="2" d="M547.1669,-469.5848C545.1995,-456.7967 542.5417,-439.5207 540.3125,-425.0313"/>
<polygon fill="#c0c0c0" stroke="#c0c0c0" stroke-width="2" points="543.7611,-424.4288 538.7811,-415.0773 536.8425,-425.4932 543.7611,-424.4288"/>
</g>
<!-- 26 -->
<g id="node27" class="node">
<title>26</title>
<path fill="none" stroke="#88d856" stroke-width="2" d="M584.5,-1141C584.5,-1141 531.5,-1141 531.5,-1141 525.5,-1141 519.5,-1135 519.5,-1129 519.5,-1129 519.5,-1079 519.5,-1079 519.5,-1073 525.5,-1067 531.5,-1067 531.5,-1067 584.5,-1067 584.5,-1067 590.5,-1067 596.5,-1073 596.5,-1079 596.5,-1079 596.5,-1129 596.5,-1129 596.5,-1135 590.5,-1141 584.5,-1141"/>
<text text-anchor="middle" x="558" y="-1129" font-family="sans" font-size="10.00" fill="#000000">getRawFunc</text>
<text text-anchor="middle" x="558" y="-1118" font-family="sans" font-size="10.00" fill="#000000">acq: mb</text>
<text text-anchor="middle" x="558" y="-1107" font-family="sans" font-size="10.00" fill="#000000">run: 1</text>
<text text-anchor="middle" x="558" y="-1096" font-family="sans" font-size="10.00" fill="#000000">ses: 2</text>
<text text-anchor="middle" x="558" y="-1085" font-family="sans" font-size="10.00" fill="#000000">sub: 6325t1</text>
<text text-anchor="middle" x="558" y="-1074" font-family="sans" font-size="10.00" fill="#000000">task: reward</text>
</g>
<!-- 26&#45;&gt;23 -->
<g id="edge41" class="edge">
<title>26&#45;&gt;23</title>
<path fill="none" stroke="#c0c0c0" stroke-width="2" d="M558,-1066.9111C558,-1033.2014 558,-984.1758 558,-953.4636"/>
<polygon fill="#c0c0c0" stroke="#c0c0c0" stroke-width="2" points="561.5001,-953.4192 558,-943.4192 554.5001,-953.4193 561.5001,-953.4192"/>
</g>
<!-- 26&#45;&gt;24 -->
<g id="edge45" class="edge">
<title>26&#45;&gt;24</title>
<path fill="none" stroke="#c0c0c0" stroke-width="2" d="M572.0457,-1066.743C582.474,-1041.1071 597.9715,-1006.8003 616,-979 622.3166,-969.2597 630.2808,-959.4383 637.8493,-950.8917"/>
<polygon fill="#c0c0c0" stroke="#c0c0c0" stroke-width="2" points="640.4885,-953.1918 644.6302,-943.44 635.3112,-948.4805 640.4885,-953.1918"/>
</g>
<!-- 27 -->
<g id="node28" class="node">
<title>27</title>
<path fill="none" stroke="#97d856" stroke-width="2" d="M518,-1023C518,-1023 480,-1023 480,-1023 474,-1023 468,-1017 468,-1011 468,-1011 468,-999 468,-999 468,-993 474,-987 480,-987 480,-987 518,-987 518,-987 524,-987 530,-993 530,-999 530,-999 530,-1011 530,-1011 530,-1017 524,-1023 518,-1023"/>
<text text-anchor="middle" x="499" y="-1002.5" font-family="sans" font-size="10.00" fill="#000000">slicetime</text>
</g>
<!-- 26&#45;&gt;27 -->
<g id="edge48" class="edge">
<title>26&#45;&gt;27</title>
<path fill="none" stroke="#c0c0c0" stroke-width="2" d="M535.8627,-1066.8544C528.9838,-1055.3118 521.5343,-1042.8119 515.1445,-1032.09"/>
<polygon fill="#c0c0c0" stroke="#c0c0c0" stroke-width="2" points="517.969,-1029.9926 509.843,-1023.1942 511.9559,-1033.5762 517.969,-1029.9926"/>
</g>
<!-- 27&#45;&gt;23 -->
<g id="edge42" class="edge">
<title>27&#45;&gt;23</title>
<path fill="none" stroke="#c0c0c0" stroke-width="2" d="M512.388,-986.8468C520.1578,-976.3114 530.0787,-962.8593 538.6825,-951.1932"/>
<polygon fill="#c0c0c0" stroke="#c0c0c0" stroke-width="2" points="541.5463,-953.2069 544.665,-943.0814 535.9127,-949.052 541.5463,-953.2069"/>
</g>
<!-- 28 -->
<g id="node29" class="node">
<title>28</title>
<path fill="none" stroke="#56d8d0" stroke-width="2" d="M820,-1031C820,-1031 764,-1031 764,-1031 758,-1031 752,-1025 752,-1019 752,-1019 752,-991 752,-991 752,-985 758,-979 764,-979 764,-979 820,-979 820,-979 826,-979 832,-985 832,-991 832,-991 832,-1019 832,-1019 832,-1025 826,-1031 820,-1031"/>
<text text-anchor="middle" x="792" y="-1019" font-family="sans" font-size="10.00" fill="#000000">getRawFmap</text>
<text text-anchor="middle" x="792" y="-1008" font-family="sans" font-size="10.00" fill="#000000">ses: 2</text>
<text text-anchor="middle" x="792" y="-997" font-family="sans" font-size="10.00" fill="#000000">sub: 6325t1</text>
<text text-anchor="middle" x="792" y="-986" font-family="sans" font-size="10.00" fill="#000000">task: reward</text>
</g>
<!-- 28&#45;&gt;24 -->
<g id="edge43" class="edge">
<title>28&#45;&gt;24</title>
<path fill="none" stroke="#c0c0c0" stroke-width="2" d="M751.8907,-980.126C735.6654,-970.0638 717.0252,-958.504 701.0183,-948.5772"/>
<polygon fill="#c0c0c0" stroke="#c0c0c0" stroke-width="2" points="702.7716,-945.5461 692.4285,-943.2502 699.0823,-951.4951 702.7716,-945.5461"/>
</g>
<!-- 29 -->
<g id="node30" class="node">
<title>29</title>
<path fill="none" stroke="#68d856" stroke-width="2" d="M721.5,-1023C721.5,-1023 636.5,-1023 636.5,-1023 630.5,-1023 624.5,-1017 624.5,-1011 624.5,-1011 624.5,-999 624.5,-999 624.5,-993 630.5,-987 636.5,-987 636.5,-987 721.5,-987 721.5,-987 727.5,-987 733.5,-993 733.5,-999 733.5,-999 733.5,-1011 733.5,-1011 733.5,-1017 727.5,-1023 721.5,-1023"/>
<text text-anchor="middle" x="679" y="-1002.5" font-family="sans" font-size="10.00" fill="#000000">skullstripFmapMag</text>
</g>
<!-- 29&#45;&gt;24 -->
<g id="edge44" class="edge">
<title>29&#45;&gt;24</title>
<path fill="none" stroke="#c0c0c0" stroke-width="2" d="M675.3694,-986.8468C673.3646,-976.8228 670.8317,-964.1585 668.5809,-952.9043"/>
<polygon fill="#c0c0c0" stroke="#c0c0c0" stroke-width="2" points="672.0096,-952.2008 666.6163,-943.0814 665.1455,-953.5736 672.0096,-952.2008"/>
</g>
<!-- 30 -->
<g id="node31" class="node">
<title>30</title>
<path fill="none" stroke="#56d8b1" stroke-width="2" d="M717.5,-1130C717.5,-1130 640.5,-1130 640.5,-1130 634.5,-1130 628.5,-1124 628.5,-1118 628.5,-1118 628.5,-1090 628.5,-1090 628.5,-1084 634.5,-1078 640.5,-1078 640.5,-1078 717.5,-1078 717.5,-1078 723.5,-1078 729.5,-1084 729.5,-1090 729.5,-1090 729.5,-1118 729.5,-1118 729.5,-1124 723.5,-1130 717.5,-1130"/>
<text text-anchor="middle" x="679" y="-1118" font-family="sans" font-size="10.00" fill="#000000">getRawFmapMag</text>
<text text-anchor="middle" x="679" y="-1107" font-family="sans" font-size="10.00" fill="#000000">ses: 2</text>
<text text-anchor="middle" x="679" y="-1096" font-family="sans" font-size="10.00" fill="#000000">sub: 6325t1</text>
<text text-anchor="middle" x="679" y="-1085" font-family="sans" font-size="10.00" fill="#000000">task: reward</text>
</g>
<!-- 30&#45;&gt;29 -->
<g id="edge49" class="edge">
<title>30&#45;&gt;29</title>
<path fill="none" stroke="#c0c0c0" stroke-width="2" d="M679,-1077.9889C679,-1064.2019 679,-1047.2502 679,-1033.1547"/>
<polygon fill="#c0c0c0" stroke="#c0c0c0" stroke-width="2" points="682.5001,-1033.0322 679,-1023.0322 675.5001,-1033.0323 682.5001,-1033.0322"/>
</g>
</g>
</svg>
